<svg version="1.2" xmlns="http://www.w3.org/2000/svg" viewBox="0 0 448 501" width="448" height="501">
	<style>
		.s0 { fill: #ffffff;stroke: #000000;stroke-miterlimit:10 } 
	</style>
	<path id="Shape 104 copy" fill-rule="evenodd" class="s0" d="m329.54 245.86l-2.27 32.07 13.59-21.17z"/>
	<path id="Shape 103 copy" fill-rule="evenodd" class="s0" d="m314 247.52l10-1.47-0.78 7.09z"/>
	<path id="Shape 100 copy" fill-rule="evenodd" class="s0" d="m345.05 285.2l0.38-14.18-22.95 15.06z"/>
	<path id="Shape 99 copy" fill-rule="evenodd" class="s0" d="m305.42 248.57l18.31 10.04-4.89 26.84-5.52-21.95z"/>
	<path id="Shape 98 copy" fill-rule="evenodd" class="s0" d="m306.88 253.43"/>
	<path id="Shape 96 copy" fill-rule="evenodd" class="s0" d="m305.21 252.7"/>
	<path id="Shape 95 copy" fill-rule="evenodd" class="s0" d="m307.99 253.5"/>
	<path id="Shape 86 copy" fill-rule="evenodd" class="s0" d="m301.57 247l8.81-10.46 18.29 5.6z"/>
	<path id="Shape 85 copy" fill-rule="evenodd" class="s0" d="m322.16 230.6l-11.97 2.02 25.53 7.31z"/>
	<path id="Shape 84 copy" fill-rule="evenodd" class="s0" d="m283.7 236.22l2.01 17.06 19.92-18.44z"/>
	<path id="Shape 87 copy" fill-rule="evenodd" class="s0" d="m350.36 282.14l1.59-12.74-10.97-24.51z"/>
	<path id="Shape 78 copy" fill-rule="evenodd" class="s0" d="m338.31 306.27l12.53-17.12-5.1 30.44z"/>
	<path id="Shape 77 copy" fill-rule="evenodd" class="s0" d="m367.38 361.59l-8.33 5.89 5.25 63.51 10.89 6.53z"/>
	<path id="Shape 76 copy" fill-rule="evenodd" class="s0" d="m361.87 448.79l2.18-10.63 10.62 3.72-0.64 5.25z"/>
	<path id="Shape 75 copy" fill-rule="evenodd" class="s0" d="m364.69 343.53l-8.45 12.42 2.56 8.46 7.94-6.66z"/>
	<g id="Layer 1">
		<path id="Shape 104" fill-rule="evenodd" class="s0" d="m329.54 245.86l-2.27 32.07 13.59-21.17z"/>
		<path id="Shape 103" fill-rule="evenodd" class="s0" d="m314 247.52l10-1.47-0.78 7.09z"/>
		<path id="Shape 100" fill-rule="evenodd" class="s0" d="m345.05 285.2l0.38-14.18-22.95 15.06z"/>
		<path id="Shape 99" fill-rule="evenodd" class="s0" d="m305.42 248.57l18.31 10.04-4.89 26.84-5.52-21.95z"/>
		<path id="Shape 98" fill-rule="evenodd" class="s0" d="m306.88 253.43"/>
		<path id="Shape 96" fill-rule="evenodd" class="s0" d="m305.21 252.7"/>
		<path id="Shape 95" fill-rule="evenodd" class="s0" d="m307.99 253.5"/>
		<path id="Shape 86" fill-rule="evenodd" class="s0" d="m301.57 247l8.81-10.46 18.29 5.6z"/>
		<path id="Shape 85" fill-rule="evenodd" class="s0" d="m322.16 230.6l-11.97 2.02 25.53 7.31z"/>
		<path id="Shape 84" fill-rule="evenodd" class="s0" d="m283.7 236.22l2.01 17.06 19.92-18.44z"/>
		<path id="Shape 87" fill-rule="evenodd" class="s0" d="m350.36 282.14l1.59-12.74-10.97-24.51z"/>
		<path id="Shape 78" fill-rule="evenodd" class="s0" d="m338.31 306.27l12.53-17.12-5.1 30.44z"/>
		<path id="Shape 77" fill-rule="evenodd" class="s0" d="m367.38 361.59l-8.33 5.89 5.25 63.51 10.89 6.53z"/>
		<path id="Shape 76" fill-rule="evenodd" class="s0" d="m361.87 448.79l2.18-10.63 10.62 3.72-0.64 5.25z"/>
		<path id="Shape 75" fill-rule="evenodd" class="s0" d="m364.69 343.53l-8.45 12.42 2.56 8.46 7.94-6.66z"/>
		<path id="Shape 74" fill-rule="evenodd" class="s0" d="m351.88 313.31l-5.63 13.32 10.24 17.8 8.71-4.48z"/>
		<path id="Shape 73" fill-rule="evenodd" class="s0" d="m322.3 309.34l-3.97-19.59 23.82-1.02-8.32 17.03z"/>
		<path id="Shape 72" fill-rule="evenodd" class="s0" d="m322.05 322.02l7.94-10.37 22.15 35.21z"/>
		<path id="Shape 71" fill-rule="evenodd" class="s0" d="m294.78 296.32l13.98-26.25-6.33-15.85z"/>
		<path id="Shape 94" fill-rule="evenodd" class="s0" d="m292.02 280.48l-0.47-24.98 8.29-1.92z"/>
		<path id="Shape 70" fill-rule="evenodd" class="s0" d="m287.09 335.59l13.19 6.79 3.71 10.76z"/>
		<path id="Shape 69" fill-rule="evenodd" class="s0" d="m320.89 360.95l-6.4 3.84-11.65-23.69z"/>
		<path id="Shape 68" fill-rule="evenodd" class="s0" d="m309.11 277.72l-10.78 21.06-0.74 29 14.72 18.19 4.61-30.99z"/>
		<path id="Shape 67" fill-rule="evenodd" class="s0" d="m322.81 363.25l-9.22 11.53 6.54 71.83 8.19-1.79z"/>
		<path id="Shape 66" fill-rule="evenodd" class="s0" d="m319.23 450.33l10.63-3.2 2.43 12.54z"/>
		<path id="Shape 65" fill-rule="evenodd" class="s0" d="m315.9 463l2.82-9.09 12.8 9.99z"/>
		<path id="Shape 83" fill-rule="evenodd" class="s0" d="m282.54 230.5l5.72-4.77 27.86 2.97z"/>
		<path id="Shape 82" fill-rule="evenodd" class="s0" d="m266.73 272.36l-1.74-22.36 15.08-15.5 0.44 22.34z"/>
		<path id="Shape 61" fill-rule="evenodd" class="s0" d="m293.36 335.47l-5.5-78.11-21.39 24.32z"/>
		<path id="Shape 60" fill-rule="evenodd" class="s0" d="m258.09 398.66l6.01-1.86 2.08-23.26-3.43-0.31z"/>
		<path id="Shape 59" fill-rule="evenodd" class="s0" d="m265.45 411.34l-1.56 8.62-7.68-9.24-0.11-10.59z"/>
		<path id="Shape 58" fill-rule="evenodd" class="s0" d="m254.44 413l-4.46 10.29 10.28-0.32z"/>
		<path id="Shape 57" fill-rule="evenodd" class="s0" d="m265.03 364.4l2.19 7.06-4.16-0.83z"/>
		<path id="Shape 56" fill-rule="evenodd" class="s0" d="m260.67 401.68l4.57-0.2 0.52 7.06z"/>
		<path id="Shape 55" fill-rule="evenodd" class="s0" d="m256.41 384.76l7.07-22.12-0.42-27.94-8 11.42z"/>
		<path id="Shape 52" fill-rule="evenodd" class="s0" d="m254.96 218.07l5.61-0.52 19.32 7.48-10.91 1.35z"/>
		<path id="Shape 53" fill-rule="evenodd" class="s0" d="m246.03 308.84l11.94-0.52 5.3 14.12z"/>
		<path id="Shape 54" fill-rule="evenodd" class="s0" d="m242.71 310.81l11.63 30.64 9.24-14.02z"/>
		<path id="Shape 51" fill-rule="evenodd" class="s0" d="m240.52 206.23l17.04 8.21-7.07-0.21z"/>
		<path id="Shape 49" fill-rule="evenodd" class="s0" d="m221.05 292.89l22.44 1.48-11.76-5-12.91-18.44z"/>
		<path id="Shape 44" fill-rule="evenodd" class="s0" d="m261.56 230.34l0.38 57.69-13.95-44.63z"/>
		<path id="Shape 45" fill-rule="evenodd" class="s0" d="m240.76 226.79l-8.24 24.6 26.12-22.32z"/>
		<path id="Shape 46" fill-rule="evenodd" class="s0" d="m245.58 246.44l-1.54 41.36 15.27 6.07z"/>
		<path id="Shape 47" fill-rule="evenodd" class="s0" d="m226.56 270.28l15.34-20.28-0.76 40.18z"/>
		<path id="Shape 48" fill-rule="evenodd" class="s0" d="m270.81 308.06l-48.04-11.17 42.34-1z"/>
		<path id="Shape 42" fill-rule="evenodd" class="s0" d="m192.5 126.5l6.97 2.67 7.09 7.45 8.27 43.17 15.32 21.27-12.86 3.2c-0.16-0.3-18.86-70.59-24.79-77.76z"/>
		<path id="Shape 41" fill-rule="evenodd" class="s0" d="m175 139.84l4.11 2.44-5.54 16.53-2.23-1.17z"/>
		<path id="Shape 39" fill-rule="evenodd" class="s0" d="m160.42 175.49l7.18 4.39-4.46 0.15c0.12 0.38-2.6-4.2-2.72-4.54z"/>
		<path id="Shape 40" fill-rule="evenodd" class="s0" d="m181.33 180.84l-6.25-1.44-4.04-18.65 3.08 1.66z"/>
		<path id="Shape 31" fill-rule="evenodd" class="s0" d="m233.63 97.24l5.08-24.25 5.24 8.77 0.09 9.72z"/>
		<path id="Shape 32" fill-rule="evenodd" class="s0" d="m232.26 67.23l4.99 4.04-0.95 5.59z"/>
		<path id="Shape 33" fill-rule="evenodd" class="s0" d="m215.75 106.52l1.89-6.62 1.72 4.3z"/>
		<path id="Shape 34" fill-rule="evenodd" class="s0" d="m169.05 123.97l0.54-9.53-17.42-3.25 2.63 4.18-5.65 3.87z"/>
		<path id="Shape 35" fill-rule="evenodd" class="s0" d="m141.25 106.08l-6.74-16.65 5.81-15.26-11.23 12.39 1.4 15.88z"/>
		<path id="Shape 36" fill-rule="evenodd" class="s0" d="m149.81 111.32l2.96 3.74-6 3.12-23.01-5.55-19.89-16.25 4.95 0.27 2.35-4.35 9.98 9.73z"/>
		<path id="Shape 37" fill-rule="evenodd" class="s0" d="m101.75 94.35l6.03 0.47 1.65-4.51-1.13-6.61 4.17-11.98 23.71-19.89-30.22 15.37-7.73 16.94z"/>
		<path id="Shape 38" fill-rule="evenodd" class="s0" d="m166.85 156.45l-8.2 14.77 9.05-11.1z"/>
		<path id="Shape 25" fill-rule="evenodd" class="s0" d="m195.71 123.22l10.55-9.11 0.69 3.89-5.28 8.42z"/>
		<path id="Shape 26" fill-rule="evenodd" class="s0" d="m214.99 109.4l12.37-6.16-0.81 6.6 2.38 0.63-10.67 8.6z"/>
		<path id="Shape 27" fill-rule="evenodd" class="s0" d="m229.94 102.49l17.77-10.8 4.78-8.42 1.44 6.47 4.65 0.82-26.51 18.96-3.51-1.13z"/>
		<path id="Shape 28" fill-rule="evenodd" class="s0" d="m254.37 79.25l1.63 7.85 4.46 0.63 1.57-17.21-8.48-13.44z"/>
		<path id="Shape 29" fill-rule="evenodd" class="s0" d="m231.26 50.11l9.1 0.69 11.54 5.16z"/>
		<path id="Shape 30" fill-rule="evenodd" class="s0" d="m238.79 54l13.38 4.27 0.69 10.87z"/>
		<path id="Shape 22" fill-rule="evenodd" class="s0" d="m209.81 140.8l7.38 37.92 19.03 21.36z"/>
		<path id="Shape 23" fill-rule="evenodd" class="s0" d="m202.7 128.37l6.47-9.57 3.23 18.76z"/>
		<path id="Shape 24" fill-rule="evenodd" class="s0" d="m210.2 116.72l0.39-8.54 6.6 16.96-2.33 11.91z"/>
		<path id="Shape 16" fill-rule="evenodd" class="s0" d="m220.04 430.83l-4.23-9.35 1.67-7.18 4.61 7.43z"/>
		<path id="Shape 15" fill-rule="evenodd" class="s0" d="m221.71 417.12l-3.2-6.41 4.22-4.61z"/>
		<path id="Shape 13" fill-rule="evenodd" class="s0" d="m219.79 374.57l-3.72 35.37 10.64-29.73z"/>
		<path id="Shape 12" fill-rule="evenodd" class="s0" d="m225.43 366.76l-6.16 5.25 7.57 5.51z"/>
		<path id="Shape 17" fill-rule="evenodd" class="s0" d="m221.07 343.3l-7.56 17.82-0.64 43.57 5.76-36.27 5.37-2.95z"/>
		<path id="Shape 10" fill-rule="evenodd" class="s0" d="m207.1 431.22l5.13-11.15 3.84 12.04z"/>
		<path id="Shape 9" fill-rule="evenodd" class="s0" d="m206.46 311.14l6.15 42.67 8.46-22.43z"/>
		<path id="Shape 8" fill-rule="evenodd" class="s0" d="m187.36 134.15l-10.89 23.97 8.46 23.19z"/>
		<path id="Shape 7" fill-rule="evenodd" class="s0" d="m169.81 155.17l-3.34-4.48 6.16-12.18z"/>
		<path id="Shape 6" fill-rule="evenodd" class="s0" d="m168.5 162.4l-8 11 11.5 6.5z"/>
		<path id="Shape 5" fill-rule="evenodd" class="s0" d="m216 212.9l21 12-13 42.5z"/>
		<path id="Shape 4" fill-rule="evenodd" class="s0" d="m191.5 130.9l-1 29 23 42-13.54-47.05z"/>
		<path id="Shape 19" fill-rule="evenodd" class="s0" d="m202.44 206.29l-5.83-31.06 15.15 28.86z"/>
		<path id="Shape 20" fill-rule="evenodd" class="s0" d="m175.64 135.62l-3.1-8.54v-9.45l3.88 8.8z"/>
		<path id="Shape 21" fill-rule="evenodd" class="s0" d="m176.42 108.96l9.58 19.8-6.34 10.49-1.17-16.31-4.01-9.84z"/>
		<path id="Shape 3" fill-rule="evenodd" class="s0" d="m189 250l1 27.9 24 36.5z"/>
		<path id="Shape 2" fill-rule="evenodd" class="s0" d="m219 322.9l-29.5-81.5 22.5-27z"/>
		<path id="Shape 18" fill-rule="evenodd" class="s0" d="m190.14 166.43l10.23 42.32-12.56 23.56-5.57-28.73z"/>
		<path id="Shape 43" fill-rule="evenodd" class="s0" d="m277.91 227.81l-14.83 18.76 1.14-17.12z"/>
		<path id="Shape 50" fill-rule="evenodd" class="s0" d="m217.26 208.72l16-4.25 29.9 22.22-25.75-5.19z"/>
		<path id="Shape 81" fill-rule="evenodd" class="s0" d="m306.5 359.58l7.28 7.94-2.54 5.95z"/>
		<path id="Shape 90" fill-rule="evenodd" class="s0" d="m288.68 332.64l-12.55-16.8-5.24-18.99z"/>
		<path id="Shape 105" fill-rule="evenodd" class="s0" d="m341.57 262.85l-5.57 9.12 6.03-2.63z"/>
	</g>
</svg>